HIERARCHY
ROOT pelvis
{
  OFFSET 0 100 0
  CHANNELS 6 Xposition Yposition Zposition Zrotation Xrotation Yrotation
  JOINT pelvis_right_femur
  {
    OFFSET -10.78128 -3.44521 -0.5502486
    CHANNELS 3 Zrotation Xrotation Yrotation
    JOINT right_femur_tibia
    {
      OFFSET -0.8047443 -44.0398 -0.1307829
      CHANNELS 3 Zrotation Xrotation Yrotation
      JOINT right_tibia_foot
      {
        OFFSET 3.006224 -47.83518 -5
        CHANNELS 3 Zrotation Xrotation Yrotation
        End Site
        {
          OFFSET 0 -5 15
        }
      }
    }
  }
  JOINT pelvis_left_femur
  {
    OFFSET 10.78128 -3.44521 -0.5502486
    CHANNELS 3 Zrotation Xrotation Yrotation
    JOINT left_femur_tibia
    {
      OFFSET 0.8047443 -44.0398 -0.1307829
      CHANNELS 3 Zrotation Xrotation Yrotation
      JOINT left_tibia_foot
      {
        OFFSET -4.370144 -48.10324 -4.275266
        CHANNELS 3 Zrotation Xrotation Yrotation
        End Site
        {
          OFFSET 0 -5 15
        }
      }
    }
  }
  JOINT pelvis_spine1
  {
    OFFSET 0 6.468898 -3.129235
    CHANNELS 3 Zrotation Xrotation Yrotation
    JOINT spine1
    {
      OFFSET 0 23.15396 4.99043
      CHANNELS 3 Zrotation Xrotation Yrotation
      JOINT spine2
      {
        OFFSET 0 20.79997 -5.064912
        CHANNELS 3 Zrotation Xrotation Yrotation
        JOINT neck
        {
          OFFSET 0 14.38658 9.616178
          CHANNELS 3 Zrotation Xrotation Yrotation
          End Site
          {
            OFFSET 0 20 0
          }
        }
      }
      JOINT right_manubrium
      {
        OFFSET -5.722621 16.35077 3.967754
        CHANNELS 3 Zrotation Xrotation Yrotation
        JOINT right_clavicle
        {
          OFFSET -13.16364 1.694482 -4.693211
          CHANNELS 3 Zrotation Xrotation Yrotation
          JOINT right_humerus
          {
            OFFSET -28.5034 -0.3100689 -2.792744
            CHANNELS 3 Zrotation Xrotation Yrotation
            JOINT right_radius
            {
              OFFSET -25.15693 0.02248979 -1.271978
              CHANNELS 3 Zrotation Xrotation Yrotation
              End Site
              {
                OFFSET -15 0 0
              }
            }
          }
        }
      }
      JOINT left_manubrium
      {
        OFFSET 5.722621 16.35077 3.967754
        CHANNELS 3 Zrotation Xrotation Yrotation
        JOINT left_clavicle
        {
          OFFSET 13.16364 1.694482 -4.693211
          CHANNELS 3 Zrotation Xrotation Yrotation
          JOINT left_humerus
          {
            OFFSET 29.39168 -1.063119 -2.237045
            CHANNELS 3 Zrotation Xrotation Yrotation
            JOINT left_radius
            {
              OFFSET 24.59957 -0.9528479 0.9047498
              CHANNELS 3 Zrotation Xrotation Yrotation
              End Site
              {
                OFFSET 15 -0 -0
              }
            }
          }
        }
      }
    }
  }
}
MOTION
Frames: 17
Frame Time: 0.0416666666667
-899.4826 105.5653 2846.39 -1.712843 -2.090956 -39.22842 2.718885 -27.37452 -1.015236 -0 8.836659 -0 -4.817833 0.1649865 -4.650692 -4.547453 16.04771 -7.849184 -0 20.73676 -0 -3.287359 -18.25362 11.75301 -1.496102 -0.6443608 2.297765 2.212583 9.723567 -8.554114 1.244408 21.75262 6.601166 2.722883 -20.76338 7.586852 0.8481221 -15.17945 10.70245 92.08708 25.17032 -24.03296 -0 0 5.58834 -18.95538 10.78839 9.327732 6.877029 -24.36032 -4.985443 -82.04378 20.5288 5.876797 0 0 -29.8417 7.001524 10.28696 4.886876
-904.0676 105.1691 2851.418 -2.074365 -2.542412 -39.12243 3.427578 -25.34524 -0.352307 -0 8.628076 -0 -5.102191 0.1805546 -5.108656 -4.478305 16.30332 -7.593077 -0 28.38433 -0 -3.999206 -16.33615 11.72288 -1.213128 -1.10404 2.518391 2.129073 9.932175 -8.502944 1.510252 21.9094 6.185594 2.588873 -20.36939 7.472134 0.5512927 -14.78575 10.60367 92.78035 24.43083 -24.72181 -0 0 4.846774 -18.64868 10.92192 8.589348 6.618585 -24.37779 -4.917789 -82.05975 20.45596 5.726382 0 0 -29.62335 7.044342 10.47381 4.781976
-908.8207 105.3695 2856.515 -2.622665 -3.18094 -39.20886 4.291497 -22.41004 0.7569171 -0 10.22712 -0 -5.282776 0.001114998 -5.6388 -4.310568 15.29451 -7.42998 -0 37.59632 -0 -4.829761 -13.93386 11.91795 -0.9271775 -1.298366 2.86049 2.025588 10.26736 -8.332938 1.749566 22.09973 5.772887 2.497841 -19.93387 7.289944 0.618894 -14.50584 10.67812 93.06064 24.09441 -24.93508 -0 0 4.562513 -18.24421 11.12866 7.945021 6.090387 -24.04059 -4.895338 -82.51824 20.75965 6.343111 0 0 -28.53523 6.535715 10.51655 5.386069
-913.5986 106.19 2861.536 -3.292164 -3.903093 -39.49251 5.174672 -18.76174 2.103891 -0 12.67981 -0 -5.336072 -0.6813728 -6.151055 -3.974584 12.85222 -7.283864 -0 46.93447 -0 -5.701765 -11.35326 12.36413 -0.6537796 -1.175528 3.314185 1.912826 10.64891 -8.034645 1.943051 22.30306 5.379218 2.43263 -19.47191 7.050593 0.977329 -14.42877 10.89893 92.80749 24.15752 -24.51902 -0 0 4.898035 -17.82467 11.38702 7.510197 5.406901 -23.38506 -4.880001 -83.39907 21.34267 7.658355 0 0 -26.73216 5.569474 10.39138 6.563345
-918.2652 107.4918 2866.356 -4.045969 -4.652214 -39.9777 5.930031 -14.46975 3.36315 -0 14.89944 -0 -5.368882 -2.002337 -6.502929 -3.423841 8.973574 -7.065003 -0 54.75253 -0 -6.46495 -8.92139 13.12146 -0.4027204 -0.7641659 3.846481 1.774031 11.00717 -7.579932 2.094347 22.54376 4.998241 2.358152 -18.99441 6.781602 1.395551 -14.6735 11.20717 92.03104 24.36093 -23.32577 -0 0 5.919249 -17.55782 11.61649 7.398819 4.715359 -22.51376 -4.856038 -84.68357 22.0131 9.567473 0 0 -24.37051 4.395551 10.21364 7.975303
-922.7191 108.9983 2870.902 -4.857325 -5.392974 -40.66617 6.45019 -9.550638 4.186363 -0 15.89192 -0 -5.546706 -3.918097 -6.534159 -2.632032 3.813388 -6.681903 -0 59.47126 -0 -6.932468 -6.934664 14.23304 -0.1797738 -0.1585486 4.41342 1.57833 11.29169 -6.94124 2.218266 22.8611 4.616307 2.236527 -18.52257 6.519789 1.575251 -15.36262 11.5287 90.85954 24.31392 -21.27357 -0 0 7.604575 -17.6468 11.71124 7.709955 4.163206 -21.56922 -4.82935 -86.32594 22.53088 11.94211 0 0 -21.61295 3.332467 10.18972 9.195398
-926.9149 110.354 2875.177 -5.671999 -6.068111 -41.54724 6.70034 -4.075376 4.311556 -0 14.978 -0 -5.982473 -6.244532 -6.120485 -1.59267 -2.309264 -6.054486 -0 59.90068 -0 -6.941715 -5.602002 15.66041 0.007477063 0.5002822 4.976032 1.301319 11.4702 -6.122795 2.323608 23.26314 4.232726 2.045439 -18.09882 6.298681 1.272452 -16.57174 11.78411 89.51571 23.69184 -18.43669 -0 0 9.860602 -18.25485 11.58855 8.501976 3.863791 -20.69821 -4.810602 -88.20984 22.67835 14.62309 0 0 -18.67007 2.653966 10.50233 9.86462
-930.8774 111.2171 2879.268 -6.375531 -6.571427 -42.58339 6.72101 1.72623 3.673753 -0 12.04031 -0 -6.634416 -8.715212 -5.230166 -0.3335181 -8.894985 -5.141468 -0 55.66715 -0 -6.43767 -4.983519 17.23694 0.1425763 1.051612 5.513968 0.9466662 11.52527 -5.190712 2.398654 23.68833 3.876676 1.795777 -17.78565 6.134803 0.4251119 -18.25893 11.90166 88.24313 22.4524 -15.10173 -0 0 12.52705 -19.41477 11.23873 9.750815 3.858566 -20.00789 -4.791547 -90.1287 22.35436 17.41531 0 0 -15.83409 2.47536 11.16566 9.853721
-934.6935 111.3667 2883.326 -6.798353 -6.766922 -43.70411 6.585721 7.422306 2.472213 -0 7.6898 -0 -7.27606 -11.0454 -3.956367 1.05331 -15.29944 -3.986306 -0 47.57353 -0 -5.544004 -4.963877 18.67963 0.1981317 1.359297 6.029278 0.5574925 11.45336 -4.277148 2.409202 24.0058 3.60951 1.538923 -17.6477 6.020467 -0.7685948 -20.21582 11.84751 87.16194 20.94693 -11.71661 -0 0 15.3799 -20.9664 10.752 11.31932 4.091573 -19.5244 -4.731606 -91.83005 21.65261 20.11206 0 0 -13.4479 2.672435 11.95076 9.368202
-938.4778 110.7717 2887.508 -6.780834 -6.557143 -44.82175 6.332934 12.46602 1.121808 -0 3.125924 -0 -7.592394 -12.98879 -2.496176 2.388314 -20.8715 -2.754513 -0 37.48955 -0 -4.545176 -5.307156 19.68715 0.1450529 1.36126 6.533615 0.2035437 11.26561 -3.537078 2.317267 24.07401 3.50201 1.35082 -17.72268 5.932036 -1.906142 -22.10718 11.65891 86.17435 19.77885 -8.738429 -0 0 18.15444 -22.59107 10.28857 12.97945 4.427615 -19.18458 -4.572893 -93.11595 20.8461 22.54223 0 0 -11.7906 2.911782 12.4854 8.883788
-942.3257 109.5737 2891.92 -6.266594 -5.953606 -45.86334 5.940598 16.40201 0.06732446 0 -0.3645854 0 -7.364422 -14.37251 -1.075773 3.432348 -25.14518 -1.706995 -0 27.6034 -0 -3.74818 -5.773224 20.085 -0.03031922 1.088525 7.025675 -0.05434234 10.98666 -3.075181 2.111615 23.82715 3.595091 1.295306 -18.00005 5.850845 -2.585237 -23.60799 11.43257 85.07203 19.45679 -6.471606 -0 0 20.59615 -23.95377 9.990694 14.49119 4.719662 -18.882 -4.278906 -93.92531 20.25075 24.59988 0 0 -10.94927 2.842116 12.48076 8.877525
-946.2904 108.0022 2896.597 -5.345008 -5.085188 -46.78866 5.377017 19.04558 -0.430023 0 -1.93411 0 -6.596782 -15.10012 0.1311044 3.976615 -27.9478 -1.093501 -0 19.52181 -0 -3.324538 -6.208654 19.90726 -0.3159066 0.6341267 7.479716 -0.1958417 10.6507 -2.900446 1.822256 23.31666 3.876153 1.393675 -18.42516 5.778328 -2.616982 -24.53772 11.25904 83.75685 20.12585 -4.993423 -0 0 22.51609 -24.8533 9.901527 15.68438 4.877469 -18.53611 -3.863093 -94.33119 20.06423 26.23973 0 0 -10.78789 2.316085 11.88655 9.546232
-950.3895 106.2931 2901.524 -4.207443 -4.138973 -47.58073 4.660329 20.49479 -0.3708935 0 -1.329926 0 -5.490195 -15.12481 1.037735 3.928655 -29.35078 -1.044376 -0 13.89579 -0 -3.263747 -6.559498 19.34744 -0.6793184 0.09901573 7.854745 -0.2439183 10.29812 -2.943198 1.504802 22.67571 4.290998 1.623703 -18.92466 5.732647 -2.077172 -24.89031 11.16942 82.33612 21.57051 -4.207598 -0 0 23.81563 -25.2692 9.959056 16.49038 4.885375 -18.12801 -3.383885 -94.46913 20.30438 27.45969 0 0 -11.03599 1.437219 10.86925 10.75646
-954.6235 104.6498 2906.664 -3.068666 -3.291018 -48.22695 3.857772 21.0023 0.0674583 -0 1.310354 -0 -4.320565 -14.41471 1.626666 3.323365 -29.53251 -1.547436 -0 10.65119 -0 -3.438239 -6.833291 18.64077 -1.081287 -0.4433906 8.110499 -0.2441844 9.974462 -3.10709 1.213665 22.05169 4.773259 1.940145 -19.43179 5.735091 -1.197903 -24.7724 11.14186 81.04659 23.3938 -3.967034 -0 0 24.47111 -25.30597 10.05322 16.92142 4.773681 -17.68984 -2.92018 -94.46413 20.85842 28.28569 0 0 -11.41028 0.4351644 9.695461 12.20414
-958.9857 103.2391 2911.977 -2.115222 -2.672803 -48.71018 3.047788 20.8293 0.6621608 -0 5.724267 -0 -3.33857 -12.93689 1.914606 2.273883 -28.66287 -2.49855 -0 9.402105 -0 -3.687673 -7.060094 17.97803 -1.485424 -0.9515347 8.215003 -0.2425131 9.72968 -3.310834 0.9868156 21.56173 5.264512 2.294236 -19.89718 5.800066 -0.2340524 -24.32758 11.13943 80.14315 25.18631 -4.165151 -0 0 24.50074 -25.1114 10.08514 17.03076 4.583276 -17.27825 -2.551794 -94.39666 21.565 28.7566 0 0 -11.68948 -0.4677612 8.632529 13.583
-963.4595 102.1994 2917.42 -1.489635 -2.369845 -49.01047 2.294743 20.15274 1.224329 -0 11.64826 -0 -2.72746 -10.67122 1.930078 0.9217186 -26.85521 -3.759526 -0 9.722088 -0 -3.868039 -7.274877 17.479 -1.861213 -1.401883 8.143602 -0.2717745 9.61486 -3.504596 0.8441564 21.28154 5.719465 2.64253 -20.28788 5.93206 0.6106338 -23.69092 11.13817 79.8346 26.6109 -4.756519 -0 0 23.9393 -24.82128 9.996423 16.88119 4.347225 -16.95625 -2.351388 -94.30126 22.27152 28.90841 0 0 -11.73811 -1.113418 7.899533 14.6602
-968.0095 101.6424 2922.937 -1.286013 -2.426985 -49.11169 1.646795 19.02393 1.622117 -0 18.78581 -0 -2.593135 -7.651645 1.70953 -0.5858577 -24.17661 -5.188397 -0 11.22721 -0 -3.871284 -7.51864 17.19729 -2.183689 -1.771577 7.877326 -0.3452737 9.673898 -3.670485 0.790422 21.24846 6.105032 2.94901 -20.58385 6.12587 1.205693 -22.97215 11.13563 80.24909 27.43322 -5.7271 -0 0 22.83183 -24.53317 9.774887 16.53009 4.088767 -16.78455 -2.379869 -94.17651 22.86208 28.76049 0 0 -11.51254 -1.410933 7.646398 15.2869
